<svg width="60" height="64" viewBox="0 0 60 64" fill="none" xmlns="http://www.w3.org/2000/svg">
<path fill-rule="evenodd" clip-rule="evenodd" d="M3.40378 30.4544C3.29387 30.7412 3.47423 37.1609 3.64045 38.8808C3.72438 39.7493 3.86821 40.6977 3.96007 40.9883C4.23957 41.8729 4.99209 43.3215 5.57099 44.0892C6.13065 44.8313 7.69569 46.46 8.04499 46.6637C8.15131 46.7258 8.45484 46.9321 8.71945 47.122C9.30803 47.5447 10.4121 48.1179 11.1428 48.38C12.2308 48.7704 14.2555 48.9117 19.6828 48.9758C27.3783 49.0669 27.1782 49.1978 25.2908 45.3063C25.0439 44.7972 24.6825 44.1429 24.4879 43.8524C24.2933 43.5618 24.1341 43.3 24.1341 43.2705C24.1341 43.2411 24.0484 43.1047 23.9438 42.9673C23.8392 42.8301 23.6802 42.6077 23.5905 42.4731C23.1137 41.7578 21.8499 40.1619 21.318 39.6032C19.9662 38.1837 18.917 37.1606 18.2019 36.565C17.3444 35.8508 17.4104 35.9031 16.6872 35.3666C16.3882 35.1449 16.0947 34.9246 16.0349 34.8773C15.8326 34.7172 14.4489 33.8613 13.9358 33.579C13.6553 33.4246 13.3524 33.2409 13.2627 33.1709C13.173 33.1008 12.904 32.9542 12.6648 32.845C12.4256 32.7358 12.0914 32.5789 11.9222 32.4965C11.7529 32.4139 11.5646 32.3464 11.5037 32.3464C11.4428 32.3464 11.2389 32.2797 11.0505 32.1984C10.3808 31.9089 10.0826 31.795 9.47501 31.5966C5.85006 30.413 3.58305 29.9865 3.40378 30.4544ZM54.737 30.4407C54.438 30.5251 54.0755 30.5965 53.9312 30.5991C53.564 30.6058 50.6037 31.4746 49.8449 31.7984C48.5466 32.3523 46.3747 33.4088 45.6416 33.843C44.3965 34.5806 44.0589 34.7949 43.697 35.0779C43.4847 35.244 43.0644 35.5427 42.7629 35.7417C42.4616 35.9407 41.9318 36.3487 41.5858 36.6482C41.2398 36.9477 40.7061 37.4053 40.3999 37.6652C39.0214 38.8352 37.5947 40.5564 36.1875 42.747C35.2011 44.2826 35.0049 44.6193 34.4743 45.6875C33.6801 47.286 33.5922 47.5487 33.5922 48.3222V49.0243L39.4355 48.9804C44.1795 48.9449 45.5244 48.9017 46.5835 48.7511C47.301 48.649 48.0103 48.5225 48.1598 48.4699C48.3093 48.4171 48.6021 48.3444 48.8104 48.308C49.4676 48.1936 51.1543 47.2757 51.9908 46.5774C52.924 45.7984 54.5261 43.9865 55.0887 43.0737C55.4744 42.4479 55.8509 41.3308 56.1345 39.9699C56.363 38.8736 56.6645 33.8743 56.6205 31.9108L56.5851 30.3316L55.9328 30.3094C55.5741 30.2972 55.036 30.3563 54.737 30.4407Z" fill="#257E00"/>
<path fill-rule="evenodd" clip-rule="evenodd" d="M12.3887 5.21799C12.372 8.07578 12.3282 10.4441 12.2914 10.481C12.1931 10.5795 11.7026 10.5711 10.7422 10.4542C9.68625 10.3256 9.40615 10.1063 9.29891 9.32366C9.20937 8.67013 9.05747 8.56921 8.16376 8.56921C7.16958 8.56921 7.18956 8.63857 7.18072 5.1723C7.17668 3.5752 7.17285 2.255 7.17231 2.23857C7.16707 2.09031 6.07919 3.02775 6.07919 3.1805C6.07919 3.22455 5.93177 3.42256 5.75159 3.62056C5.5714 3.81846 5.42398 4.01055 5.42398 4.04726C5.42398 4.08397 5.35092 4.19508 5.2616 4.29414C5.01731 4.56491 4.00435 6.6036 4.00435 6.8244C4.00435 6.93025 3.95292 7.03403 3.89013 7.05506C3.75242 7.10109 3.46096 8.28278 3.38146 9.1171C3.3499 9.44857 3.38648 10.3017 3.46282 11.013C3.63448 12.6138 3.64409 12.6236 5.04876 12.6236C5.61781 12.6236 6.27412 12.6935 6.58054 12.7868C6.87539 12.8765 7.39748 12.9505 7.74071 12.9511C8.08393 12.9518 8.57534 13.0209 8.83273 13.1049C9.09012 13.1887 9.58666 13.2841 9.93611 13.3168C10.2857 13.3495 10.6297 13.4222 10.7005 13.4782C10.7715 13.5343 11.1155 13.6083 11.4649 13.6426C11.8145 13.677 12.1585 13.7508 12.2294 13.8067C12.3003 13.8626 12.5991 13.9397 12.8933 13.9783C13.1876 14.0169 13.4825 14.092 13.5485 14.1454C13.6147 14.1988 13.8899 14.2783 14.1602 14.3221C14.4304 14.3658 14.7007 14.4396 14.7608 14.4862C14.8208 14.5327 15.042 14.6039 15.2522 14.6445C15.4624 14.6851 15.7327 14.7603 15.8528 14.8115C16.1429 14.9352 17.0807 15.2443 17.4935 15.3521C17.6749 15.3995 17.9297 15.4954 18.0596 15.5651C18.1893 15.6348 18.391 15.6918 18.5077 15.6918C18.6245 15.6918 18.7811 15.7657 18.8559 15.8561C18.9307 15.9465 19.0977 16.0205 19.2271 16.0205C19.3566 16.0205 19.5594 16.0882 19.6778 16.1708C19.7963 16.2536 20.053 16.3561 20.2482 16.3988C20.4433 16.4414 20.6031 16.5216 20.6031 16.5771C20.6031 16.6326 20.7445 16.678 20.9174 16.678C21.0901 16.678 21.2927 16.7519 21.3675 16.8423C21.4423 16.9327 21.5492 17.0067 21.6052 17.0067C21.7891 17.0067 24.3199 18.1918 24.4252 18.3272C24.4552 18.3659 24.615 18.4307 24.7801 18.4712C24.9452 18.5118 25.0804 18.5934 25.0804 18.6525C25.0804 18.7116 25.1471 18.76 25.2287 18.76C25.3741 18.76 26.4012 19.2735 27.1552 19.7235C27.3654 19.8488 27.734 20.052 27.9742 20.1749C28.2145 20.2978 28.6778 20.5751 29.004 20.7912C29.8594 21.3579 30.0567 21.3709 30.7458 20.9056C31.0653 20.6897 31.36 20.5132 31.4002 20.5132C31.4631 20.5132 32.0224 20.1711 32.7895 19.6633C32.904 19.5876 33.0713 19.4977 33.1614 19.4636C33.2514 19.4295 33.3989 19.3557 33.489 19.2996C33.5791 19.2436 33.751 19.1479 33.8712 19.0868C33.9913 19.0258 34.237 18.8785 34.4172 18.7595C34.5974 18.6405 34.8185 18.5123 34.9086 18.4745C34.9987 18.4367 35.5659 18.1649 36.1691 17.8706C36.7723 17.5763 37.3437 17.3354 37.4389 17.3354C37.534 17.3354 37.673 17.2615 37.7478 17.1711C37.8227 17.0807 37.9475 17.0067 38.0253 17.0067C38.1032 17.0067 38.3061 16.9358 38.4761 16.849C38.9721 16.5961 39.5736 16.3492 39.6938 16.3492C39.755 16.3492 39.9687 16.2667 40.1688 16.1658C40.3688 16.065 40.6629 15.9171 40.8223 15.8371C40.9818 15.7572 41.1955 15.6918 41.2972 15.6918C41.399 15.6918 41.6372 15.6259 41.8264 15.5455C42.349 15.3232 42.8879 15.1362 43.3718 15.0091C43.612 14.9461 43.8552 14.852 43.9123 14.8C43.9693 14.7481 44.1315 14.7056 44.2727 14.7056C44.4138 14.7056 44.6619 14.6374 44.8242 14.5541C44.9863 14.4709 45.3401 14.3667 45.6104 14.3226C45.8807 14.2786 46.1559 14.1988 46.2221 14.1454C46.2881 14.092 46.583 14.0169 46.8773 13.9783C47.1715 13.9397 47.4626 13.8689 47.5242 13.8208C47.5858 13.7727 47.9052 13.6987 48.234 13.656C48.5628 13.6135 48.9547 13.5302 49.1049 13.4712C49.255 13.412 49.6973 13.3251 50.0877 13.278C50.4781 13.231 50.9941 13.1396 51.2343 13.0749C51.4746 13.0104 51.9475 12.9564 52.2853 12.955C52.6232 12.9535 53.1085 12.8784 53.3638 12.788C53.6191 12.6976 54.129 12.6218 54.4969 12.6198C54.8693 12.6176 55.2865 12.5465 55.4386 12.4592C55.5888 12.3731 55.8189 12.3009 55.9499 12.2987C56.0852 12.2965 56.2857 12.1575 56.414 11.9766C56.6167 11.6911 56.6398 11.4997 56.6398 10.1138V8.56921H52.507H48.3741L48.2711 10.3499C48.2047 11.4999 48.1117 12.2453 48.0086 12.4548L47.8491 12.7792L45.6851 12.7582C44.4949 12.7465 43.4822 12.713 43.4346 12.6834C43.3247 12.6154 43.2062 11.6096 43.1152 9.9751C43.0762 9.27172 43.017 8.66915 42.9838 8.63605C42.9506 8.60296 42.0158 8.55957 40.9065 8.53963C39.7971 8.51968 38.8293 8.46599 38.7555 8.4203C38.6534 8.35696 38.6215 7.34665 38.6215 4.17963V0.0221347H36.7221C35.0908 0.0221347 34.8134 0.0465706 34.7565 0.195487C34.72 0.29082 34.6902 1.12613 34.6902 2.05185C34.6902 3.24077 34.6517 3.75863 34.5594 3.81594C34.4875 3.86054 33.8118 3.91785 33.0578 3.94327C32.304 3.96869 31.3923 4.0214 31.0319 4.06041L30.3767 4.13131L30.3468 5.96674L30.3169 7.80217H32.4355C34.0002 7.80217 34.5824 7.838 34.6619 7.93914C34.7297 8.02549 34.7447 8.90616 34.7025 10.3195L34.6356 12.5629L34.3626 12.7012C34.1889 12.7892 33.6161 12.8401 32.7888 12.8411C31.8897 12.8422 31.3121 12.8984 30.9186 13.0229L30.3492 13.2029L30.2953 13.9581C30.2657 14.3736 30.2061 14.7486 30.1629 14.7917C30.1196 14.8348 29.5919 14.8612 28.99 14.8504C28.0157 14.833 27.8667 14.8034 27.6304 14.5807C27.3913 14.3553 27.3682 14.2552 27.3966 13.5706C27.4253 12.8822 27.4573 12.7888 27.7361 12.5801C27.9576 12.4142 28.2636 12.3343 28.8281 12.2949L29.6123 12.2401V10.4334V8.62674L29.0879 8.55146C28.7995 8.51004 27.9641 8.50949 27.2315 8.55015L25.8994 8.624L25.8318 10.229C25.7513 12.1392 25.6788 12.5889 25.4306 12.7178C25.1422 12.8676 20.8616 12.9487 20.7204 12.807C20.6454 12.7317 20.6031 11.9659 20.6031 10.6807C20.6031 9.17189 20.5691 8.66016 20.4666 8.62477C20.3916 8.5988 19.4315 8.56329 18.333 8.54598C16.7009 8.52023 16.3171 8.4844 16.2326 8.35006C16.1757 8.25965 16.1284 7.78178 16.1274 7.28814C16.1265 6.73532 16.0779 6.36089 16.0011 6.31322C15.9325 6.27071 15.5163 6.20058 15.0764 6.15729C14.6214 6.11258 14.1512 5.99643 13.9862 5.88795C13.7066 5.70419 13.698 5.66803 13.7475 4.89342C13.8225 3.72039 13.9477 3.57881 14.9871 3.4906C15.4514 3.45127 16.6768 3.41905 17.7104 3.41905C18.7441 3.41905 19.8178 3.38771 20.0964 3.34936L20.6031 3.27967V1.6509V0.0221347H16.5111H12.4192L12.3887 5.21799ZM25.8693 1.6932L25.8994 3.36426L27.4274 3.39889C28.2677 3.41795 29.1154 3.40338 29.3111 3.36656L29.6669 3.2995V1.66087V0.0221347H27.753H25.8391L25.8693 1.6932ZM43.8632 3.90371V7.80743L45.6821 7.7774C47.405 7.74891 47.5026 7.73587 47.5346 7.52822C47.5765 7.25548 47.6696 5.40077 47.7464 3.30947C47.7784 2.43559 47.8257 1.61814 47.8516 1.49278C47.9194 1.1635 48.3547 1.00834 49.2112 1.00834C50.217 1.00834 50.3772 1.19484 50.405 2.39756C50.4172 2.92211 50.4752 3.27978 50.5565 3.33161C50.871 3.53224 53.6933 3.37478 53.689 3.15694C53.6838 2.90294 50.9528 0.78918 50.6298 0.78918C50.5719 0.78918 50.5245 0.743157 50.5245 0.686944C50.5245 0.63073 50.414 0.55293 50.2788 0.51392C50.1436 0.474911 49.8611 0.361936 49.6509 0.262768C49.337 0.114838 48.7849 0.0751704 46.5659 0.0412013L43.8632 0V3.90371ZM21.443 4.14698C21.4015 4.18862 21.3675 5.02798 21.3675 6.01243V7.80217H23.2266H25.0856L25.0557 5.96674L25.0258 4.13131L23.2721 4.10128C22.3075 4.08485 21.4844 4.10534 21.443 4.14698Z" fill="#56AA20"/>
<path fill-rule="evenodd" clip-rule="evenodd" d="M55.1798 17.4318C54.851 17.4801 54.215 17.5721 53.7666 17.6362C51.884 17.9051 51.6239 17.9471 51.1574 18.058C49.3451 18.4887 48.7263 18.6192 48.4963 18.6192C48.3526 18.6192 48.2081 18.6626 48.1754 18.7158C48.1427 18.7688 47.9319 18.8458 47.707 18.8869C47.2746 18.9656 46.8288 19.1008 45.5043 19.5546C45.0559 19.7082 44.5239 19.8753 44.3224 19.9259C44.1207 19.9766 43.903 20.0709 43.8386 20.1354C43.7741 20.2 43.653 20.2528 43.5693 20.2528C43.4857 20.2528 43.2386 20.3299 43.0203 20.4242C42.802 20.5185 42.4766 20.6586 42.2973 20.7355C42.1179 20.8123 41.7456 20.9803 41.47 21.1086C41.1944 21.2369 40.935 21.3418 40.8934 21.3418C40.7237 21.3418 37.4303 23.0203 37.03 23.3109C36.7922 23.4834 36.5195 23.7441 36.4239 23.8902C36.262 24.1376 36.266 24.1867 36.4821 24.611C36.6146 24.8711 37.7242 26.0928 39.0706 27.461L41.4273 29.8558L41.8595 29.7865C42.0971 29.7485 42.3663 29.6569 42.4575 29.583C42.658 29.4207 45.6409 27.9682 46.3197 27.7023C47.1695 27.3696 48.8542 26.7594 49.1462 26.6787C49.4517 26.5942 49.6437 26.5324 50.5323 26.2322C50.7267 26.1665 51.0943 26.0699 51.3492 26.0174C51.6042 25.965 51.9068 25.8716 52.0216 25.8101C52.1364 25.7484 52.3501 25.6981 52.4967 25.6981C52.6432 25.6981 53.0012 25.6285 53.292 25.5436C53.5829 25.4585 54.1389 25.3319 54.5276 25.2621C54.9162 25.1921 55.5277 25.0776 55.8865 25.0073L56.5388 24.8797L56.5674 21.0959L56.5959 17.3123L56.1869 17.3281C55.9618 17.3368 55.5087 17.3835 55.1798 17.4318Z" fill="#56AA20"/>
<path fill-rule="evenodd" clip-rule="evenodd" d="M3.62767 17.5297C3.42427 17.681 3.41209 17.8578 3.3773 21.158C3.35719 23.066 3.38078 24.6848 3.42949 24.7554C3.4783 24.8259 3.83553 24.9352 4.22342 24.9984C6.1058 25.3049 7.43113 25.5713 8.57045 25.872C9.50756 26.1192 10.2574 26.3391 10.5266 26.4455C10.6758 26.5044 11.165 26.671 11.6138 26.8157C12.0626 26.9603 12.5276 27.1251 12.6472 27.1816C12.7668 27.2383 13.3491 27.4872 13.9411 27.735C14.5332 27.9828 15.0958 28.2249 15.1913 28.2729C15.2869 28.321 15.5594 28.4516 15.797 28.563C16.0345 28.6745 16.4564 28.8956 16.7346 29.0544C17.0129 29.2132 17.5279 29.503 17.8792 29.6984C19.0523 30.351 21.5339 32.1062 22.8049 33.1822C24.3878 34.5223 26.6302 36.8099 27.1762 37.6416C27.2744 37.7914 27.5044 38.0792 27.6871 38.2813C27.8699 38.4835 28.1562 38.851 28.3234 39.0981C28.4907 39.3452 28.6537 39.572 28.6855 39.6019C28.7832 39.6935 29.7686 41.0353 29.8649 41.2076C30.0465 41.5328 30.4073 41.2127 31.1816 40.0395C31.6134 39.3853 31.9983 38.8356 32.0369 38.8176C32.0963 38.79 32.3091 38.5339 33.0838 37.557C33.1444 37.4804 33.4387 37.155 33.7377 36.834C34.0366 36.5128 34.4237 36.0853 34.5977 35.884C34.7717 35.6827 35.1752 35.2399 35.4944 34.9C36.1579 34.1934 36.1574 34.1341 35.4832 33.4121C35.2406 33.1525 34.9964 32.8585 34.9402 32.7589C34.7047 32.3409 31.1414 28.9274 29.9191 27.9489C29.0228 27.2313 27.7963 26.3141 27.4595 26.1095C27.2353 25.9733 27.0518 25.8169 27.0518 25.7618C27.0518 25.7068 27.0068 25.6618 26.9518 25.6618C26.8968 25.6618 26.4686 25.3996 26.0005 25.0791C25.5323 24.7587 24.9047 24.3559 24.6057 24.1843C24.3068 24.0127 23.9975 23.8093 23.9185 23.7324C23.8395 23.6555 23.7243 23.5926 23.6625 23.5926C23.6007 23.5926 23.3474 23.4559 23.0995 23.289C22.5826 22.9406 18.4511 20.8699 18.2729 20.8699C18.208 20.8699 17.9919 20.7879 17.7927 20.6876C17.5936 20.5874 17.3008 20.4404 17.1421 20.3609C16.9834 20.2815 16.7632 20.215 16.6529 20.213C16.5425 20.2111 16.3572 20.1376 16.2412 20.0496C16.1251 19.9617 15.9456 19.8898 15.8423 19.8898C15.739 19.8898 15.516 19.8209 15.3467 19.7369C15.1774 19.6527 14.8188 19.529 14.5497 19.4619C14.2806 19.3948 13.8159 19.2652 13.5169 19.1739C13.218 19.0828 12.7532 18.9586 12.4841 18.8981C12.2151 18.8375 11.8971 18.7461 11.7775 18.695C11.6579 18.644 11.2666 18.5427 10.9078 18.47C10.549 18.3974 9.93752 18.2724 9.54887 18.1921C9.16022 18.1119 8.57317 17.9939 8.24431 17.9301C7.91545 17.8662 7.30393 17.7447 6.88539 17.6601C5.64768 17.4098 3.88369 17.3393 3.62767 17.5297Z" fill="#56AA20"/>
<path d="M7.8013 61.4091H2.5439L1.45568 63.8867H0L4.48009 53.9762H5.87924L10.3735 63.8867H8.88952L7.8013 61.4091ZM7.30665 60.2765L5.1726 55.4203L3.03855 60.2765H7.30665Z" fill="#257E00"/>
<path d="M18.5656 58.8748H19.9224V62.7399C19.4324 63.1458 18.8624 63.4573 18.2123 63.6744C17.5622 63.8914 16.8838 64 16.1772 64C15.1785 64 14.2787 63.7829 13.4778 63.3487C12.677 62.9051 12.0457 62.301 11.584 61.5365C11.1318 60.7625 10.9057 59.8942 10.9057 58.9314C10.9057 57.9687 11.1318 57.1004 11.584 56.3264C12.0457 55.5524 12.677 54.9484 13.4778 54.5142C14.2881 54.08 15.1973 53.8629 16.2054 53.8629C16.9969 53.8629 17.7129 53.9951 18.3536 54.2593C19.0037 54.5142 19.5549 54.8917 20.0072 55.392L19.1309 56.2698C18.3395 55.5052 17.3832 55.123 16.262 55.123C15.5082 55.123 14.8299 55.2881 14.2269 55.6185C13.6333 55.9394 13.1669 56.3925 12.8277 56.9777C12.4885 57.5534 12.3189 58.2047 12.3189 58.9314C12.3189 59.6488 12.4885 60.3 12.8277 60.8852C13.1669 61.461 13.6333 61.9141 14.2269 62.2444C14.8299 62.5748 15.5035 62.7399 16.2478 62.7399C17.1335 62.7399 17.9061 62.5276 18.5656 62.1028V58.8748Z" fill="#257E00"/>
<path d="M29.2424 63.8867L27.1083 60.8428C26.8445 60.8616 26.6372 60.8711 26.4865 60.8711H24.0415V63.8867H22.6282V53.9762H26.4865C27.7679 53.9762 28.776 54.2829 29.5109 54.8964C30.2458 55.51 30.6133 56.3547 30.6133 57.4307C30.6133 58.1952 30.4248 58.8465 30.048 59.3845C29.6711 59.9225 29.134 60.3142 28.4368 60.5596L30.7829 63.8867H29.2424ZM26.4441 59.6677C27.3392 59.6677 28.0223 59.4742 28.4934 59.0872C28.9644 58.7002 29.2 58.148 29.2 57.4307C29.2 56.7134 28.9644 56.1659 28.4934 55.7884C28.0223 55.4014 27.3392 55.2079 26.4441 55.2079H24.0415V59.6677H26.4441Z" fill="#257E00"/>
<path d="M37.3626 64C36.3638 64 35.4641 63.7829 34.6632 63.3487C33.8623 62.9051 33.2311 62.2963 32.7694 61.5223C32.3172 60.7484 32.091 59.8847 32.091 58.9314C32.091 57.9781 32.3172 57.1145 32.7694 56.3406C33.2311 55.5666 33.8623 54.9625 34.6632 54.5283C35.4641 54.0847 36.3638 53.8629 37.3626 53.8629C38.3519 53.8629 39.2469 54.0847 40.0478 54.5283C40.8486 54.9625 41.4752 55.5666 41.9274 56.3406C42.3797 57.1051 42.6058 57.9687 42.6058 58.9314C42.6058 59.8942 42.3797 60.7625 41.9274 61.5365C41.4752 62.301 40.8486 62.9051 40.0478 63.3487C39.2469 63.7829 38.3519 64 37.3626 64ZM37.3626 62.7399C38.088 62.7399 38.7381 62.5748 39.3129 62.2444C39.897 61.9141 40.354 61.461 40.6838 60.8852C41.0229 60.3 41.1925 59.6488 41.1925 58.9314C41.1925 58.2141 41.0229 57.5676 40.6838 56.9918C40.354 56.4066 39.897 55.9488 39.3129 55.6185C38.7381 55.2881 38.088 55.123 37.3626 55.123C36.6371 55.123 35.9775 55.2881 35.384 55.6185C34.7998 55.9488 34.3381 56.4066 33.999 56.9918C33.6692 57.5676 33.5043 58.2141 33.5043 58.9314C33.5043 59.6488 33.6692 60.3 33.999 60.8852C34.3381 61.461 34.7998 61.9141 35.384 62.2444C35.9775 62.5748 36.6371 62.7399 37.3626 62.7399Z" fill="#257E00"/>
<path d="M59.9999 53.9718L56.7867 63.8824H53.7857L51.8889 57.8511L49.9071 63.8824H46.9062L43.6929 53.9718H46.5806L48.5765 60.3004L50.6715 53.9718H53.2478L55.2437 60.3571L57.3246 53.9718H59.9999Z" fill="#A2C513"/>
</svg>
