<svg width="36" height="36" viewBox="0 0 36 36" fill="none" xmlns="http://www.w3.org/2000/svg">
<circle cx="18" cy="18" r="18" fill="#E0E4E8"/>
<path d="M18 17.5C20.525 17.5 22.5714 15.3736 22.5714 12.75C22.5714 10.1264 20.525 8 18 8C15.475 8 13.4286 10.1264 13.4286 12.75C13.4286 15.3736 15.475 17.5 18 17.5ZM21.2 18.6875H20.6036C19.8107 19.066 18.9286 19.2812 18 19.2812C17.0714 19.2812 16.1929 19.066 15.3964 18.6875H14.8C12.15 18.6875 10 20.9215 10 23.675V25.2188C10 26.2021 10.7679 27 11.7143 27H24.2857C25.2321 27 26 26.2021 26 25.2188V23.675C26 20.9215 23.85 18.6875 21.2 18.6875Z" fill="#C7CCD1"/>
</svg>
